<?xml version="1.0" standalone="no"?>
<!DOCTYPE svg PUBLIC "-//W3C//DTD SVG 20010904//EN"
 "http://www.w3.org/TR/2001/REC-SVG-20010904/DTD/svg10.dtd">
<svg version="1.0" xmlns="http://www.w3.org/2000/svg"
 width="115.000000pt" height="115.000000pt" viewBox="0 0 115.000000 115.000000"
 preserveAspectRatio="xMidYMid meet">
<metadata>
Created by potrace 1.11, written by Peter Selinger 2001-2013
</metadata>
<g transform="translate(0.000000,115.000000) scale(0.100000,-0.100000)"
fill="#000000" stroke="none">
<path d="M828 1124 c-15 -15 -13 -22 29 -86 l45 -70 -33 -36 c-47 -49 -101
-97 -110 -97 -4 0 -26 29 -49 64 -40 62 -42 63 -61 45 -17 -15 -17 -20 -6 -38
8 -12 51 -79 97 -151 103 -163 105 -164 126 -143 16 15 13 22 -31 93 l-48 77
69 69 c38 38 71 69 74 69 3 0 25 -32 49 -71 24 -38 48 -68 54 -66 36 12 27 36
-74 195 -57 89 -106 161 -109 162 -3 0 -13 -7 -22 -16z"/>
<path d="M477 774 c-79 -42 -74 -184 7 -196 19 -3 21 -10 22 -63 1 -68 13 -97
49 -121 56 -36 140 17 166 105 11 36 15 39 38 35 19 -4 32 0 45 15 11 12 17
23 15 25 -4 4 -49 13 -75 15 -6 1 -18 26 -28 56 -19 62 -31 74 -54 52 -12 -13
-13 -19 -3 -31 7 -8 14 -26 17 -41 l5 -27 -48 7 c-62 9 -62 9 -53 48 21 93
-33 157 -103 121z m63 -82 c0 -53 -11 -73 -34 -66 -31 9 -48 35 -41 64 14 56
75 58 75 2z m103 -141 c21 -5 41 -11 43 -14 8 -7 -21 -70 -39 -85 -51 -43
-100 -9 -96 67 3 37 6 41 28 41 15 0 43 -4 64 -9z"/>
<path d="M307 602 c-9 -10 -15 -29 -12 -42 2 -14 6 -47 9 -75 4 -27 9 -68 11
-90 16 -120 16 -115 -8 -106 -13 5 -65 30 -116 55 -51 25 -96 46 -100 46 -3 0
-12 -9 -18 -20 -11 -17 -1 -37 80 -162 51 -79 99 -153 108 -165 l15 -22 18 20
c16 20 14 24 -59 136 -42 63 -75 116 -73 118 2 1 45 -18 97 -42 52 -24 101
-41 108 -38 12 4 13 17 9 63 -4 31 -9 77 -12 102 -2 25 -7 61 -10 80 -4 30 7
17 70 -80 41 -63 79 -116 85 -118 5 -2 15 6 21 17 9 18 -1 39 -73 148 -46 71
-92 143 -102 161 -22 37 -26 38 -48 14z"/>
</g>
</svg>
